<svg width="20" height="20" viewBox="0 0 20 20" fill="none" xmlns="http://www.w3.org/2000/svg">
<path d="M8.17383 2.89844C11.178 2.12803 14.2788 3.30784 16 5.75V3.33301C16.0001 2.96488 16.2988 2.66602 16.667 2.66602C17.035 2.66623 17.3329 2.96501 17.333 3.33301V7.5C17.3329 7.86797 17.0349 8.1658 16.667 8.16602H16.1924C16.1859 8.16599 16.1794 8.16623 16.1729 8.16602H12.5C12.1319 8.16602 11.8331 7.8681 11.833 7.5C11.833 7.13181 12.1318 6.83301 12.5 6.83301H15.1162C13.7639 4.62998 11.098 3.52438 8.50488 4.18945H8.50586C7.45103 4.4608 6.48984 5.01499 5.72559 5.79102C4.96153 6.56698 4.42214 7.53604 4.16699 8.59473C3.91188 9.65348 3.95057 10.7619 4.27734 11.8008C4.6042 12.8397 5.20804 13.7701 6.02344 14.4922C6.8389 15.2142 7.83535 15.7017 8.90625 15.9004C9.97714 16.099 11.0824 16.0026 12.1025 15.6211C13.1226 15.2396 14.0195 14.5868 14.6973 13.7344C15.3749 12.8819 15.8085 11.861 15.9502 10.7812C15.9981 10.4162 16.3322 10.1592 16.6973 10.207C17.0623 10.2549 17.3194 10.589 17.2715 10.9541C17.0984 12.274 16.5696 13.5224 15.7412 14.5645C14.9129 15.6063 13.816 16.4029 12.5693 16.8691C11.3226 17.3353 9.97184 17.4537 8.66309 17.2109C7.35442 16.9681 6.13621 16.3735 5.13965 15.4912C4.14297 14.6087 3.40441 13.471 3.00488 12.2012C2.60547 10.9314 2.55926 9.5763 2.87109 8.28223C3.18294 6.98833 3.84159 5.80385 4.77539 4.85547C5.70947 3.90699 6.88459 3.23009 8.17383 2.89844Z" fill="#B7B7B7"/>
</svg>
