<svg width="16" height="16" viewBox="0 0 16 16" fill="none" xmlns="http://www.w3.org/2000/svg">
<path d="M12.667 2.7998C13.1619 2.79989 13.6364 2.99679 13.9863 3.34668C14.3364 3.69675 14.5332 4.17192 14.5332 4.66699V6.66699C14.533 6.96139 14.2944 7.2002 14 7.2002C13.7878 7.2002 13.5846 7.28454 13.4346 7.43457C13.2845 7.5846 13.2002 7.78783 13.2002 8C13.2002 8.21217 13.2845 8.4154 13.4346 8.56543C13.5846 8.71546 13.7878 8.7998 14 8.7998C14.2944 8.7998 14.533 9.03861 14.5332 9.33301V11.333C14.5332 11.8281 14.3364 12.3033 13.9863 12.6533C13.6364 13.0032 13.1619 13.2001 12.667 13.2002H3.33301C2.83813 13.2001 2.36365 13.0032 2.01367 12.6533C1.6636 12.3033 1.4668 11.8281 1.4668 11.333V9.33301L1.46973 9.27832C1.49727 9.00963 1.72403 8.7998 2 8.7998C2.21217 8.7998 2.4154 8.71546 2.56543 8.56543C2.69668 8.43418 2.77769 8.2622 2.7959 8.0791L2.7998 8C2.7998 7.78783 2.71546 7.5846 2.56543 7.43457C2.4154 7.28454 2.21217 7.2002 2 7.2002C1.70556 7.2002 1.46697 6.96139 1.4668 6.66699V4.66699C1.4668 4.17192 1.6636 3.69675 2.01367 3.34668C2.36365 2.99679 2.83813 2.79989 3.33301 2.7998H12.667ZM3.33301 3.86621C3.12103 3.8663 2.91751 3.95074 2.76758 4.10059C2.61755 4.25062 2.5332 4.45482 2.5332 4.66699V6.21094C2.82765 6.29872 3.09813 6.45946 3.31934 6.68066C3.6694 7.03073 3.86621 7.50493 3.86621 8L3.86426 8.09277C3.84132 8.55406 3.64747 8.9912 3.31934 9.31934C3.09817 9.5405 2.8276 9.70029 2.5332 9.78809V11.333C2.5332 11.5452 2.61755 11.7494 2.76758 11.8994C2.91751 12.0493 3.12103 12.1337 3.33301 12.1338H9.4668V11.333C9.46697 11.0386 9.70556 10.7998 10 10.7998C10.2944 10.7998 10.533 11.0386 10.5332 11.333V12.1338H12.667C12.879 12.1337 13.0825 12.0493 13.2324 11.8994C13.3825 11.7494 13.4668 11.5452 13.4668 11.333V9.78809C13.1724 9.70029 12.9018 9.5405 12.6807 9.31934C12.3306 8.96927 12.1338 8.49507 12.1338 8C12.1338 7.50493 12.3306 7.03073 12.6807 6.68066C12.9019 6.45946 13.1723 6.29872 13.4668 6.21094V4.66699C13.4668 4.45482 13.3825 4.25062 13.2324 4.10059C13.0825 3.95074 12.879 3.8663 12.667 3.86621H10.5332V4.66699L10.5303 4.72168C10.5027 4.99037 10.276 5.2002 10 5.2002C9.72403 5.2002 9.49727 4.99037 9.46973 4.72168L9.4668 4.66699V3.86621H3.33301ZM10 6.7998C10.2944 6.7998 10.533 7.03861 10.5332 7.33301V8.66699L10.5303 8.72168C10.5027 8.99037 10.276 9.2002 10 9.2002C9.72403 9.2002 9.49727 8.99037 9.46973 8.72168L9.4668 8.66699V7.33301C9.46697 7.03861 9.70556 6.7998 10 6.7998Z" fill="white"/>
</svg>
