<svg width="100" height="101" viewBox="0 0 100 101" fill="none" xmlns="http://www.w3.org/2000/svg">
<path fill-rule="evenodd" clip-rule="evenodd" d="M5.5 9.5C6.88071 9.5 8 10.5474 8 11.8394L8 42.1606C8 43.4526 6.88071 44.5 5.5 44.5C4.11929 44.5 3 43.4526 3 42.1606L3 11.8394C3 10.5474 4.11929 9.5 5.5 9.5Z" fill="#454545"/>
<path fill-rule="evenodd" clip-rule="evenodd" d="M15.5 9.5C16.8807 9.5 18 10.5447 18 11.8333V31.1667C18 32.4553 16.8807 33.5 15.5 33.5C14.1193 33.5 13 32.4553 13 31.1667V11.8333C13 10.5447 14.1193 9.5 15.5 9.5Z" fill="#454545"/>
<path fill-rule="evenodd" clip-rule="evenodd" d="M25.5 14.5C26.8807 14.5 28 15.5342 28 16.81V39.19C28 40.4658 26.8807 41.5 25.5 41.5C24.1193 41.5 23 40.4658 23 39.19V16.81C23 15.5342 24.1193 14.5 25.5 14.5Z" fill="#454545"/>
<path d="M94 50.0001C94 72.3677 75.8675 90.5001 53.5 90.5001C31.1325 90.5001 13 72.3677 13 50.0001C13 27.6326 31.1325 9.50012 53.5 9.50012C75.8675 9.50012 94 27.6326 94 50.0001Z" fill="#323232"/>
<path fill-rule="evenodd" clip-rule="evenodd" d="M53.5 85.8595C73.3046 85.8595 89.3594 69.8047 89.3594 50.0001C89.3594 30.1955 73.3046 14.1407 53.5 14.1407C33.6954 14.1407 17.6406 30.1955 17.6406 50.0001C17.6406 69.8047 33.6954 85.8595 53.5 85.8595ZM53.5 90.5001C75.8675 90.5001 94 72.3677 94 50.0001C94 27.6326 75.8675 9.50012 53.5 9.50012C31.1325 9.50012 13 27.6326 13 50.0001C13 72.3677 31.1325 90.5001 53.5 90.5001Z" fill="#323232"/>
<path opacity="0.2" d="M40 46.0001C40 42.9626 42.4421 40.5001 45.4545 40.5001H49.5455C52.5579 40.5001 55 42.9626 55 46.0001C55 49.0377 52.5579 51.5001 49.5455 51.5001H45.4545C42.4421 51.5001 40 49.0377 40 46.0001Z" fill="#BFBFBF"/>
<path opacity="0.2" d="M71 46.0001C71 42.9626 73.5642 40.5001 76.7273 40.5001H79.2727C82.4358 40.5001 85 42.9626 85 46.0001C85 49.0377 82.4358 51.5001 79.2727 51.5001H76.7273C73.5642 51.5001 71 49.0377 71 46.0001Z" fill="#BFBFBF"/>
<path fill-rule="evenodd" clip-rule="evenodd" d="M71.5 36.5001C73.433 36.5001 75 38.1161 75 40.1095V41.8907C75 43.8842 73.433 45.5001 71.5 45.5001C69.567 45.5001 68 43.8842 68 41.8907V40.1095C68 38.1161 69.567 36.5001 71.5 36.5001Z" fill="#B7B7B7"/>
<path fill-rule="evenodd" clip-rule="evenodd" d="M45.4065 56.4743C46.122 57.5583 47.5359 57.8258 48.5645 57.0717L49.8397 56.1367C56.8487 50.9977 66.1513 50.9977 73.1603 56.1367L74.4355 57.0717C75.4641 57.8258 76.8779 57.5583 77.5935 56.4743C78.309 55.3902 78.0552 53.9 77.0267 53.1458L75.7515 52.2108C67.1849 45.9299 55.8151 45.9299 47.2485 52.2108L45.9733 53.1458C44.9448 53.9 44.691 55.3902 45.4065 56.4743Z" fill="#B7B7B7"/>
<path fill-rule="evenodd" clip-rule="evenodd" d="M39.7368 42.0795C38.8521 42.9443 38.7496 44.4634 39.508 45.4724L40.0182 46.1512C41.0341 47.5029 41.0341 49.4974 40.0182 50.8491L39.508 51.5279C38.7496 52.5369 38.8521 54.0559 39.7368 54.9208C40.6216 55.7856 41.9536 55.6688 42.712 54.6598L43.2222 53.981C45.5926 50.8271 45.5926 46.1732 43.2222 43.0193L42.712 42.3404C41.9536 41.3314 40.6216 41.2146 39.7368 42.0795Z" fill="#B7B7B7"/>
<path fill-rule="evenodd" clip-rule="evenodd" d="M85.1403 42.0795C86.1726 42.9443 86.2921 44.4634 85.4073 45.4724L84.8121 46.1512C83.6269 47.5029 83.6269 49.4974 84.8121 50.8491L85.4073 51.5279C86.2921 52.5369 86.1726 54.0559 85.1403 54.9208C84.1081 55.7856 82.5541 55.6688 81.6694 54.6598L81.0741 53.981C78.3086 50.8271 78.3086 46.1732 81.0741 43.0193L81.6694 42.3404C82.5541 41.3314 84.1081 41.2146 85.1403 42.0795Z" fill="#B7B7B7"/>
<path fill-rule="evenodd" clip-rule="evenodd" d="M53.5 36.5001C55.433 36.5001 57 38.1161 57 40.1095V41.8907C57 43.8842 55.433 45.5001 53.5 45.5001C51.567 45.5001 50 43.8842 50 41.8907V40.1095C50 38.1161 51.567 36.5001 53.5 36.5001Z" fill="#B7B7B7"/>
</svg>
