<svg width="16" height="16" viewBox="0 0 16 16" fill="none" xmlns="http://www.w3.org/2000/svg">
<path d="M9.45605 2.7998V4.66699C9.45623 4.96753 9.69942 5.21094 10 5.21094C10.3006 5.21094 10.5438 4.96753 10.5439 4.66699V2.7998H12.667C13.1619 2.79989 13.6364 2.99679 13.9863 3.34668C14.3364 3.69675 14.5332 4.17192 14.5332 4.66699V6.66699C14.533 6.96139 14.2944 7.2002 14 7.2002C13.7878 7.2002 13.5846 7.28454 13.4346 7.43457C13.2845 7.5846 13.2002 7.78783 13.2002 8C13.2002 8.21217 13.2845 8.4154 13.4346 8.56543C13.5846 8.71546 13.7878 8.7998 14 8.7998C14.2944 8.7998 14.533 9.03861 14.5332 9.33301V11.333C14.5332 11.8281 14.3364 12.3033 13.9863 12.6533C13.6364 13.0032 13.1619 13.2001 12.667 13.2002H10.5439V11.333C10.5438 11.0325 10.3006 10.7891 10 10.7891C9.69942 10.7891 9.45623 11.0325 9.45605 11.333V13.2002H3.33301C2.83813 13.2001 2.36365 13.0032 2.01367 12.6533C1.6636 12.3033 1.4668 11.8281 1.4668 11.333V9.33301L1.46973 9.27832C1.49727 9.00963 1.72403 8.7998 2 8.7998C2.21217 8.7998 2.4154 8.71546 2.56543 8.56543C2.69668 8.43418 2.77769 8.2622 2.7959 8.0791L2.7998 8C2.7998 7.78783 2.71546 7.5846 2.56543 7.43457C2.4154 7.28454 2.21217 7.2002 2 7.2002C1.70556 7.2002 1.46697 6.96139 1.4668 6.66699V4.66699C1.4668 4.17192 1.6636 3.69675 2.01367 3.34668C2.36365 2.99679 2.83813 2.79989 3.33301 2.7998H9.45605ZM10 6.78906C9.69942 6.78906 9.45623 7.03247 9.45605 7.33301V8.66699C9.45623 8.96753 9.69942 9.21094 10 9.21094C10.3006 9.21094 10.5438 8.96753 10.5439 8.66699V7.33301C10.5438 7.03247 10.3006 6.78906 10 6.78906Z" fill="#FF858F"/>
</svg>
