<svg width="21" height="21" viewBox="0 0 21 21" fill="none" xmlns="http://www.w3.org/2000/svg">
<g clip-path="url(#clip0_5077_2066)">
<path fill-rule="evenodd" clip-rule="evenodd" d="M8.41412 4.18947L6.42988 6.53217C6.31017 6.6735 6.13435 6.755 5.94914 6.755H4.37414C4.0771 6.755 3.79222 6.873 3.58218 7.08304C3.37214 7.29308 3.25414 7.57795 3.25414 7.875V15.75C3.25414 16.047 3.37214 16.3319 3.58218 16.542C3.79222 16.752 4.0771 16.87 4.37414 16.87H16.6241C16.9212 16.87 17.2061 16.752 17.4161 16.542C17.6261 16.3319 17.7441 16.047 17.7441 15.75V7.875C17.7441 7.57795 17.6261 7.29308 17.4161 7.08304C17.2061 6.873 16.9212 6.755 16.6241 6.755H15.0491C14.8639 6.755 14.6881 6.6735 14.5684 6.53217L12.5842 4.18947C12.5398 4.15123 12.4831 4.13 12.4241 4.13H8.57414C8.5152 4.13 8.45845 4.15123 8.41412 4.18947ZM7.50995 3.3108C7.79219 3.02856 8.17499 2.87 8.57414 2.87H12.4241C12.8233 2.87 13.2061 3.02856 13.4883 3.3108C13.5006 3.32307 13.5124 3.33585 13.5236 3.3491L15.3411 5.495H16.6241C17.2554 5.495 17.8607 5.74574 18.3071 6.19208C18.7534 6.63842 19.0041 7.24378 19.0041 7.875V15.75C19.0041 16.3812 18.7534 16.9866 18.3071 17.4329C17.8607 17.8792 17.2554 18.13 16.6241 18.13H4.37414C3.74293 18.13 3.13756 17.8792 2.69123 17.4329C2.24489 16.9866 1.99414 16.3812 1.99414 15.75V7.875C1.99414 7.24378 2.24489 6.63842 2.69123 6.19208C3.13756 5.74574 3.74293 5.495 4.37414 5.495H5.65713L7.47469 3.3491C7.48591 3.33585 7.49767 3.32307 7.50995 3.3108Z" fill="#787878"/>
<path fill-rule="evenodd" clip-rule="evenodd" d="M8.19751 9.07336C8.80794 8.46293 9.63586 8.12 10.4991 8.12C11.3624 8.12 12.1903 8.46293 12.8008 9.07336C13.4112 9.68379 13.7541 10.5117 13.7541 11.375C13.7541 12.2383 13.4112 13.0662 12.8008 13.6766C12.1903 14.2871 11.3624 14.63 10.4991 14.63C9.63586 14.63 8.80794 14.2871 8.19751 13.6766C7.58708 13.0662 7.24414 12.2383 7.24414 11.375C7.24414 10.5117 7.58708 9.68379 8.19751 9.07336ZM10.4991 9.38C9.97003 9.38 9.4626 9.59018 9.08846 9.96432C8.71433 10.3385 8.50414 10.8459 8.50414 11.375C8.50414 11.9041 8.71433 12.4115 9.08846 12.7857C9.4626 13.1598 9.97003 13.37 10.4991 13.37C11.0282 13.37 11.5357 13.1598 11.9098 12.7857C12.284 12.4115 12.4941 11.9041 12.4941 11.375C12.4941 10.8459 12.284 10.3385 11.9098 9.96432C11.5357 9.59018 11.0282 9.38 10.4991 9.38Z" fill="#787878"/>
</g>
<defs>
<clipPath id="clip0_5077_2066">
<rect width="21" height="21" fill="white"/>
</clipPath>
</defs>
</svg>
