<svg width="30" height="30" viewBox="0 0 30 30" fill="none" xmlns="http://www.w3.org/2000/svg">
<path d="M25 20.25C25.5523 20.25 26 20.6977 26 21.25V23.75C26 24.6783 25.631 25.5682 24.9746 26.2246C24.3182 26.881 23.4283 27.25 22.5 27.25H7.5C6.57174 27.25 5.68177 26.881 5.02539 26.2246C4.36901 25.5682 4 24.6783 4 23.75V21.25C4 20.6977 4.44772 20.25 5 20.25C5.55228 20.25 6 20.6977 6 21.25V23.75C6 24.1478 6.15815 24.5292 6.43945 24.8105C6.72076 25.0919 7.10218 25.25 7.5 25.25H22.5C22.8978 25.25 23.2792 25.0919 23.5605 24.8105C23.8419 24.5292 24 24.1478 24 23.75V21.25C24 20.6977 24.4477 20.25 25 20.25ZM15 4C15.5523 4 16 4.44772 16 5V17.5859L20.543 13.043C20.9335 12.6524 21.5665 12.6524 21.957 13.043C22.3475 13.4335 22.3476 14.0665 21.957 14.457L15.707 20.707C15.6592 20.7548 15.6065 20.7976 15.5498 20.835C15.5121 20.8599 15.4727 20.8811 15.4326 20.9004C15.3862 20.9227 15.3381 20.942 15.2881 20.957C15.2723 20.9618 15.2562 20.9648 15.2402 20.9688C15.2253 20.9724 15.2105 20.9765 15.1953 20.9795C15.1853 20.9815 15.1751 20.9827 15.165 20.9844C15.1112 20.9933 15.0563 21 15 21C14.9433 21 14.8881 20.9934 14.834 20.9844C14.8236 20.9826 14.8131 20.9816 14.8027 20.9795C14.7912 20.9772 14.7799 20.9744 14.7686 20.9717C14.748 20.9668 14.7273 20.9623 14.707 20.9561C14.6584 20.9412 14.6116 20.9222 14.5664 20.9004C14.5266 20.8812 14.4877 20.8597 14.4502 20.835C14.3935 20.7976 14.3408 20.7548 14.293 20.707L8.04297 14.457C7.65244 14.0665 7.65244 13.4335 8.04297 13.043C8.43349 12.6524 9.06651 12.6524 9.45703 13.043L14 17.5859V5C14 4.44772 14.4477 4 15 4Z" fill="#2E2E2E"/>
</svg>
